<svg width="300" height="300" viewBox="0 0 300 300" fill="none" xmlns="http://www.w3.org/2000/svg">
<path d="M129 219L234.75 113.25L213.75 92.25L129 177L86.25 134.25L65.25 155.25L129 219ZM150 300C129.25 300 109.75 296.06 91.5 288.18C73.25 280.31 57.375 269.625 43.875 256.125C30.375 242.625 19.69 226.75 11.82 208.5C3.94 190.25 0 170.75 0 150C0 129.25 3.94 109.75 11.82 91.5C19.69 73.25 30.375 57.375 43.875 43.875C57.375 30.375 73.25 19.685 91.5 11.805C109.75 3.935 129.25 0 150 0C170.75 0 190.25 3.935 208.5 11.805C226.75 19.685 242.625 30.375 256.125 43.875C269.625 57.375 280.31 73.25 288.18 91.5C296.06 109.75 300 129.25 300 150C300 170.75 296.06 190.25 288.18 208.5C280.31 226.75 269.625 242.625 256.125 256.125C242.625 269.625 226.75 280.31 208.5 288.18C190.25 296.06 170.75 300 150 300Z" fill="#C7BFD3"/>
</svg>
