<svg width="300" height="300" viewBox="0 0 300 300" fill="none" xmlns="http://www.w3.org/2000/svg">
<path d="M150 0C120.333 0 91.3319 8.79735 66.6645 25.2796C41.9971 41.7618 22.7713 65.1885 11.4181 92.5975C0.0649927 120.006 -2.90551 150.166 2.88227 179.264C8.67006 208.361 22.9562 235.088 43.934 256.066C64.9119 277.044 91.6393 291.33 120.736 297.118C149.834 302.905 179.994 299.935 207.403 288.582C234.811 277.229 258.238 258.003 274.72 233.335C291.203 208.668 300 179.667 300 150C299.924 110.241 284.096 72.1321 255.982 44.0182C227.868 15.9042 189.759 0.07624 150 0V0ZM204.375 187.933C206.542 190.12 207.757 193.075 207.757 196.154C207.757 199.233 206.542 202.187 204.375 204.375C202.17 206.507 199.222 207.7 196.154 207.7C193.086 207.7 190.138 206.507 187.933 204.375L150 166.298L112.067 204.375C109.862 206.507 106.914 207.7 103.846 207.7C100.778 207.7 97.8305 206.507 95.625 204.375C93.4583 202.187 92.2428 199.233 92.2428 196.154C92.2428 193.075 93.4583 190.12 95.625 187.933L133.702 150L95.625 112.067C93.7851 109.825 92.8448 106.979 92.9871 104.083C93.1293 101.186 94.344 98.4455 96.3948 96.3947C98.4456 94.3439 101.186 93.1293 104.083 92.987C106.979 92.8447 109.825 93.785 112.067 95.625L150 133.702L187.933 95.625C190.175 93.785 193.021 92.8447 195.917 92.987C198.814 93.1293 201.555 94.3439 203.605 96.3947C205.656 98.4455 206.871 101.186 207.013 104.083C207.155 106.979 206.215 109.825 204.375 112.067L166.298 150L204.375 187.933Z" fill="#C7BFD3"/>
</svg>
